Coordinates
version=1
nRows=19
nColumns=24
inDegrees=yes

Units are S.I. units (second, meters, Newtons, ...)
Angles are in degrees.

endheader
time	pelvis_tilt	pelvis_list	pelvis_rotation	pelvis_tx	pelvis_ty	pelvis_tz	hip_flexion_r	hip_adduction_r	hip_rotation_r	knee_angle_r	ankle_angle_r	subtalar_angle_r	mtp_angle_r	hip_flexion_l	hip_adduction_l	hip_rotation_l	knee_angle_l	ankle_angle_l	subtalar_angle_l	mtp_angle_l	lumbar_extension	lumbar_bending	lumbar_rotation
      1.10383333	      1.51794274	     -0.19263234	     -5.32102492	     -0.07564785	      0.99942279	      0.26693395	    -17.11271049	      2.25165547	      3.30429640	     -7.84711260	     12.92535122	     -9.78692434	      7.59014166	     19.42587972	     -1.12559746	     -8.09791082	      3.35198874	      3.52444784	     -4.00058209	      4.11832858	     -4.05595704	      0.33835132	     11.90468310
      1.10800000	      1.51983468	     -0.11491617	     -5.38088494	     -0.06984031	      0.99889875	      0.26662959	    -17.20958330	      2.09742208	      3.25614983	     -8.35130654	     13.02683198	     -9.56295293	      7.62412761	     19.44450000	     -1.01096753	     -7.98933012	      3.06400913	      3.57782415	     -4.28712512	      4.15719111	     -4.03242735	      0.21911487	     12.06361470
      1.11216667	      1.53675892	     -0.02183470	     -5.44326587	     -0.06398955	      0.99843207	      0.26631837	    -17.31457312	      1.92392072	      3.19736350	     -8.86651840	     13.07518475	     -9.38513253	      7.67101656	     19.45283297	     -0.87908735	     -7.89239611	      2.70044085	      3.59123696	     -4.58267301	      4.20494069	     -4.00822985	      0.08896676	     12.18464325
      1.11633333	      1.54751431	      0.07495524	     -5.50725761	     -0.05809968	      0.99799269	      0.26598763	    -17.39372755	      1.74356915	      3.11694997	     -9.41982826	     13.11221450	     -9.18521016	      7.75056818	     19.46885081	     -0.74289344	     -7.78463355	      2.27972481	      3.54384761	     -4.92000157	      4.27720801	     -3.96351022	     -0.03861078	     12.31840315
      1.12050000	      1.58042598	      0.18713260	     -5.57074023	     -0.05215343	      0.99762624	      0.26568944	    -17.50719008	      1.55311801	      3.11187961	     -9.95145618	     13.06706426	     -9.16680313	      7.78704374	     19.46929609	     -0.59304304	     -7.71599811	      1.78499184	      3.54691526	     -5.14941978	      4.30870552	     -3.92415550	     -0.20636449	     12.37576160
      1.12466667	      1.57831762	      0.31122881	     -5.63693837	     -0.04620188	      0.99722954	      0.26534078	    -17.53032385	      1.34156007	      3.00937541	    -10.58721442	     13.11041525	     -8.87219638	      7.90845929	     19.49341503	     -0.42627342	     -7.53724713	      1.28645622	      3.39683484	     -5.56882601	      4.40075850	     -3.87287072	     -0.36361032	     12.55439462
      1.12883333	      1.60179993	      0.45678498	     -5.70391237	     -0.04017981	      0.99690870	      0.26502430	    -17.58987371	      1.11279878	      2.97273793	    -11.20395420	     13.06117942	     -8.77344488	      8.01578815	     19.48865589	     -0.23798983	     -7.39209673	      0.74580728	      3.29654351	     -5.89110927	      4.47963137	     -3.82777068	     -0.57683170	     12.64105041
      1.13300000	      1.60706645	      0.58422066	     -5.76799450	     -0.03416301	      0.99660242	      0.26465297	    -17.59421868	      0.89793769	      2.87565517	    -11.88674850	     13.00218656	     -8.56388418	      8.20194402	     19.50505743	     -0.06501227	     -7.21921456	      0.18039858	      3.05381780	     -6.31005805	      4.60479372	     -3.76069049	     -0.72988850	     12.77392227
      1.13716667	      1.62762433	      0.73250961	     -5.83417315	     -0.02810068	      0.99634538	      0.26428983	    -17.60182630	      0.66114573	      2.79592354	    -12.59353402	     12.90776707	     -8.40830417	      8.44107154	     19.49737195	      0.13142285	     -7.04061396	     -0.39700773	      2.80887576	     -6.70929511	      4.75643239	     -3.70466514	     -0.92689224	     12.88072267
      1.14133333	      1.64539969	      0.88849961	     -5.89798515	     -0.02200322	      0.99612289	      0.26391444	    -17.58875203	      0.41736551	      2.71743729	    -13.33283550	     12.77747960	     -8.27061773	      8.70437669	     19.49213780	      0.33630626	     -6.86957245	     -0.99156228	      2.52974219	     -7.08346309	      4.91173063	     -3.64161781	     -1.13251919	     12.97581510
      1.14550000	      1.66523454	      1.04963217	     -5.95994892	     -0.01588524	      0.99593824	      0.26351878	    -17.55266970	      0.16658666	      2.62300652	    -14.11608478	     12.61394230	     -8.12388858	      9.02023381	     19.47946632	      0.54924428	     -6.68889189	     -1.58983668	      2.21127082	     -7.46704275	      5.08398752	     -3.57726149	     -1.34186465	     13.07026383
      1.14966667	      1.69028002	      1.20670889	     -6.00658108	     -0.00974224	      0.99579453	      0.26311948	    -17.52244384	     -0.06837853	      2.57367178	    -14.88982242	     12.31837529	     -8.21904791	     13.71725744	     19.46083104	      0.76183699	     -6.48275359	     -2.19670030	      1.85035949	     -7.89835572	      7.49030852	     -3.51434892	     -1.55865111	     13.08375649
      1.15383333	      1.74479925	      1.38580662	     -6.06952924	     -0.00358458	      0.99572443	      0.26268736	    -17.47014781	     -0.35043865	      2.42526139	    -15.76415296	     12.07528512	     -7.97491215	     13.76713475	     19.41830699	      0.99246377	     -6.40373041	     -2.82867126	      1.51575145	     -8.11192827	      7.50664216	     -3.48658591	     -1.78697811	     13.20173064
      1.15800000	      1.76106658	      1.55765664	     -6.12173217	      0.00258328	      0.99563835	      0.26223523	    -17.35296683	     -0.61294538	      2.31061455	    -16.68392970	     11.79582979	     -7.84094029	     13.85662533	     19.40741073	      1.21723816	     -6.25994509	     -3.44798638	      1.14455294	     -8.41739771	      7.52982468	     -3.40951025	     -2.00465656	     13.26954696
      1.16216667	      1.80696643	      1.74695420	     -6.16350969	      0.00878571	      0.99563025	      0.26178780	    -17.26129529	     -0.89037948	      2.20556378	    -17.60597843	     11.43713432	     -7.75623287	     13.94329000	     19.36800929	      1.46122116	     -6.15799597	     -4.08013149	      0.78836777	     -8.65458627	      7.54840097	     -3.35915278	     -2.26998903	     13.31124360
      1.16633333	      1.83174645	      1.90853430	     -6.19981116	      0.01492032	      0.99561521	      0.26126650	    -17.08368239	     -1.14695872	      2.04286755	    -18.64669944	     11.12656188	     -7.55226932	     14.15901068	     19.34808545	      1.68292114	     -5.98740211	     -4.70343507	      0.38924745	     -9.02406743	      7.59011451	     -3.30334945	     -2.45696181	     13.37489541
      1.17050000	      1.92820382	      2.09861641	     -6.20774787	      0.02111380	      0.99574789	      0.26071576	    -16.99054464	     -1.43169346	      1.86015872	    -19.65884287	     10.64118247	     -7.48405733	     15.58778486	     19.20124782	      1.96178436	     -5.71004863	     -5.21812859	     -0.09472327	     -9.51751502	      7.84290713	     -3.32135125	     -2.70547781	     13.41984259
      1.17466667	      1.95202961	      2.28536519	     -6.26434780	      0.02728909	      0.99581246	      0.26024852	    -16.76241705	     -1.71398325	      1.77252292	    -20.76698166	     10.16897591	     -7.40261560	     15.69093023	     19.20025048	      2.18132588	     -5.76600635	     -5.89605597	     -0.35803516	     -9.52923893	      7.85614519	     -3.25137070	     -2.95917790	     13.40571592
      1.17883333	      2.01694866	      2.46512065	     -6.29700685	      0.03341282	      0.99595277	      0.25966686	    -16.52752108	     -2.00854313	      1.57022461	    -21.95836003	      9.66892293	     -7.23552755	     19.45601493	     19.10901999	      2.42835588	     -5.63501144	     -6.46333959	     -0.75023011	     -9.88128430	      8.32445258	     -3.23693300	     -3.16853394	     13.48982407
